<svg xmlns="http://www.w3.org/2000/svg" viewBox="0 0 240 200" fill="none">
  <circle cx="120" cy="104" r="90" fill="#9E77ED" opacity=".12"/>
  <circle cx="38" cy="46" r="12" fill="#FBBF24"/>
  <path d="M38 24v6M38 62v6M16 46h6M54 46h6M22.4 30.4l4.2 4.2M49.4 57.4l4.2 4.2M22.4 61.6l4.2-4.2M49.4 34.6l4.2-4.2" stroke="#FBBF24" stroke-width="3" stroke-linecap="round"/>
  <rect x="52" y="40" width="136" height="124" rx="14" fill="#fff" stroke="#E4E2F0" stroke-width="2"/>
  <path d="M52 54a14 14 0 0 1 14-14h108a14 14 0 0 1 14 14v18H52z" fill="#9E77ED"/>
  <rect x="80" y="30" width="8" height="20" rx="4" fill="#1C2536"/>
  <rect x="152" y="30" width="8" height="20" rx="4" fill="#1C2536"/>
  <g fill="#EEF0F4">
    <rect x="66" y="84" width="18" height="14" rx="4"/><rect x="89" y="84" width="18" height="14" rx="4"/><rect x="112" y="84" width="18" height="14" rx="4"/><rect x="135" y="84" width="18" height="14" rx="4"/><rect x="158" y="84" width="18" height="14" rx="4"/>
    <rect x="66" y="122" width="18" height="14" rx="4"/><rect x="89" y="122" width="18" height="14" rx="4"/><rect x="135" y="122" width="18" height="14" rx="4"/><rect x="158" y="122" width="18" height="14" rx="4"/>
    <rect x="66" y="141" width="18" height="14" rx="4"/><rect x="89" y="141" width="18" height="14" rx="4"/><rect x="112" y="141" width="18" height="14" rx="4"/>
    <rect x="66" y="103" width="18" height="14" rx="4"/>
  </g>
  <rect x="89" y="103" width="87" height="14" rx="4" fill="#9E77ED"/>
  <rect x="112" y="122" width="18" height="14" rx="4" fill="#E4DAFB"/>
  <circle cx="184" cy="152" r="21" fill="#2DBE8C" stroke="#fff" stroke-width="4"/>
  <path d="M174.5 152.5l6.5 6.5 12.5-13" stroke="#fff" stroke-width="4" stroke-linecap="round" stroke-linejoin="round"/>
</svg>
