<svg xmlns="http://www.w3.org/2000/svg" width="1000" height="480" viewBox="0 0 1000 480" role="img" aria-labelledby="title desc">
  <title id="title">Dashboard sidebar and page groups</title>
  <desc id="desc">Open Employees, Leave, Payroll, Meeting Rooms, Support Tickets, Calendar, and AI Assistant from the sidebar.</desc>
  <rect width="1000" height="480" rx="24" fill="#f4f8fb"/>
  <rect x="30" y="28" width="285" height="424" rx="18" fill="#143a57"/>
  <text x="59" y="77" font-family="Arial,sans-serif" font-size="27" font-weight="bold" fill="#ffffff">Kolik · Main Menu</text>
  <path d="M58 94h228" stroke="#477087" stroke-width="2"/>
  <g font-family="Arial,sans-serif" font-size="18" fill="#ffffff">
    <text x="65" y="139">Dashboard</text><text x="65" y="180">Employees</text>
    <text x="65" y="221">Leave</text><text x="65" y="262">Payroll</text>
    <text x="65" y="303">Meeting Rooms</text><text x="65" y="344">Support Tickets</text>
    <text x="65" y="385">Calendar</text><text x="65" y="426">AI Assistant</text>
  </g>
  <g fill="#55d4bf"><circle cx="51" cy="133" r="5"/><circle cx="51" cy="174" r="5"/><circle cx="51" cy="215" r="5"/><circle cx="51" cy="256" r="5"/><circle cx="51" cy="297" r="5"/><circle cx="51" cy="338" r="5"/><circle cx="51" cy="379" r="5"/><circle cx="51" cy="420" r="5"/></g>
  <path d="M330 239h55m-12-12 12 12-12 12" fill="none" stroke="#36a9a7" stroke-width="4" stroke-linecap="round" stroke-linejoin="round"/>
  <rect x="401" y="57" width="566" height="142" rx="18" fill="#ffffff" stroke="#d4e3eb" stroke-width="2"/>
  <text x="433" y="105" font-family="Arial,sans-serif" font-size="23" font-weight="bold" fill="#143a57">Daily actions</text>
  <text x="433" y="145" font-family="Arial,sans-serif" font-size="17" fill="#47647a">Employee profile · Leave request · Room booking</text>
  <rect x="401" y="219" width="566" height="142" rx="18" fill="#ffffff" stroke="#d4e3eb" stroke-width="2"/>
  <text x="433" y="267" font-family="Arial,sans-serif" font-size="23" font-weight="bold" fill="#143a57">Tracking and communication</text>
  <text x="433" y="307" font-family="Arial,sans-serif" font-size="17" fill="#47647a">Support status · Calendar · Payroll · AI chat</text>
  <text x="408" y="411" font-family="Arial,sans-serif" font-size="16" fill="#607d91">Visible links depend on the user's role.</text>
</svg>
